<?xml version="1.0" standalone="no"?><!DOCTYPE svg PUBLIC "-//W3C//DTD SVG 1.1//EN" "http://www.w3.org/Graphics/SVG/1.1/DTD/svg11.dtd"><svg t="1668844585295" class="icon" viewBox="0 0 1024 1024" version="1.1" xmlns="http://www.w3.org/2000/svg" p-id="1875" width="200" height="200" xmlns:xlink="http://www.w3.org/1999/xlink"><path d="M505.173333 494.933333c119.466667-54.613333 232.106667-102.4 395.946667-269.653333-13.653333-20.48-27.306667-40.96-44.373333-58.026667-51.2-51.2-119.466667-78.506667-204.8-78.506666-129.706667 0-273.066667 68.266667-385.706667 177.493333-153.6 153.6-211.626667 351.573333-160.426667 494.933333 167.253333-160.426667 283.306667-215.04 399.36-266.24z" fill="#9fc425" p-id="1876"></path><path d="M518.826667 529.066667c-119.466667 54.613333-232.106667 102.4-395.946667 269.653333 13.653333 20.48 27.306667 40.96 44.373333 58.026667 51.2 51.2 119.466667 78.506667 204.8 78.506666 129.706667 0 273.066667-68.266667 385.706667-177.493333 153.6-153.6 211.626667-351.573333 160.426667-494.933333-167.253333 160.426667-283.306667 215.04-399.36 266.24z" fill="#9fc425" p-id="1877"></path></svg>