<?xml version="1.0" standalone="no"?><!DOCTYPE svg PUBLIC "-//W3C//DTD SVG 1.1//EN" "http://www.w3.org/Graphics/SVG/1.1/DTD/svg11.dtd"><svg t="1668854104084" class="icon" viewBox="0 0 1024 1024" version="1.1" xmlns="http://www.w3.org/2000/svg" p-id="2860" xmlns:xlink="http://www.w3.org/1999/xlink" width="200" height="200"><path d="M138.44898 909.061224c-5.746939 0-12.016327-2.089796-16.718368-6.791836-9.404082-9.404082-9.404082-24.032653 0-33.436735l135.314286-135.314286c9.404082-9.404082 24.032653-9.404082 33.436735 0 9.404082 9.404082 9.404082 24.032653 0 33.436735l-135.314286 135.314286c-4.702041 4.702041-10.44898 6.791837-16.718367 6.791836z" fill="#7BD4EF" p-id="2861"></path><path d="M765.910204 371.461224L653.061224 258.612245l112.84898-112.84898 112.84898 112.84898-112.84898 112.848979z" fill="#D2F4FF" p-id="2862"></path><path d="M353.17551 807.183673c-36.571429 0-70.530612-14.106122-96.653061-40.228571-25.6-25.6-40.228571-60.604082-40.228571-96.653061 0-36.571429 14.106122-70.530612 40.228571-96.653061L632.163265 198.530612c7.314286-7.314286 19.330612-7.314286 26.644898 0l165.616327 165.093878c7.314286 7.314286 7.314286 19.330612 0 26.644898L449.306122 766.955102c-25.077551 26.122449-59.559184 40.228571-96.130612 40.228571z m-79.934694-216.293877z" fill="#7BD4EF" p-id="2863"></path><path d="M885.55102 321.828571c-5.746939 0-12.016327-2.089796-16.718367-6.791836l-159.346939-159.346939c-9.404082-9.404082-9.404082-24.032653 0-33.436735s24.032653-9.404082 33.436735 0L902.791837 282.122449c9.404082 9.404082 9.404082 24.032653 0 33.436735-5.22449 3.657143-10.971429 6.269388-17.240817 6.269387z" fill="#7BD4EF" p-id="2864"></path><path d="M646.791837 250.77551l-355.787755 355.787755c-16.718367 16.718367-26.122449 39.183673-26.122449 63.216327s9.404082 46.497959 26.122449 63.216326c16.718367 16.718367 39.183673 26.122449 63.216326 26.122449s46.497959-9.404082 63.216327-26.122449L773.22449 377.208163 646.791837 250.77551z" fill="#D2F4FF" p-id="2865"></path><path d="M416.914286 480.653061l-125.387755 125.387755c-16.718367 16.718367-26.122449 39.183673-26.122449 63.216327s9.404082 46.497959 26.122449 63.216326c16.718367 16.718367 39.183673 26.122449 63.216326 26.122449s46.497959-9.404082 63.216327-26.122449l247.640816-247.640816-248.685714-4.179592z" fill="#E5404F" p-id="2866"></path><path d="M653.583673 447.216327c-6.269388 0-12.538776-2.612245-17.240816-7.314286l-85.159184-85.159184c-9.404082-9.404082-9.926531-24.555102-0.522449-33.959184 9.404082-9.404082 24.555102-8.881633 33.959184 0.522449l85.159184 85.159184c9.404082 9.404082 9.926531 24.555102 0.522449 33.959184-4.702041 4.702041-10.44898 6.791837-16.718368 6.791837zM571.559184 529.240816c-6.269388 0-12.538776-2.612245-17.240817-7.314285L469.681633 436.244898c-9.926531-9.404082-9.926531-24.555102-1.044898-33.959184 9.404082-9.404082 24.555102-8.881633 33.959183 0.522449l85.159184 85.159184c9.404082 9.404082 9.926531 24.555102 0.522449 33.959184-4.179592 5.22449-10.44898 7.314286-16.718367 7.314285zM490.057143 610.742857c-6.269388 0-12.538776-2.612245-17.240816-7.314286L387.657143 518.269388c-9.404082-9.404082-9.926531-24.555102-0.522449-33.959184 9.404082-9.404082 24.555102-8.881633 33.959184 0.522449l85.159183 85.159184c9.404082 9.404082 9.926531 24.555102 0.522449 33.959183-4.702041 4.702041-10.44898 6.791837-16.718367 6.791837z" fill="#7BD4EF" p-id="2867"></path></svg>